PathFileType	4	(X/Y/Z)	Patient4_TMGait_0pt3_03_right_22.trc.trc
DataRate	CameraRate	NumFrames	NumMarkers	Units	OrigDataRate	OrigDataStartFrame	OrigNumFrames
53.030303030303	53.030303030303	4	33	mm	53.030303030303	106	       141
Frame#	Time	Sacral			L.Shoulder			Chest			R.Shoulder			Neck			R.ASIS			L.ASIS			R.Thigh.Superior			R.Thigh.Lateral			R.Thigh.Inferior			R.Patella			L.Thigh.Superior			L.Thigh.Lateral			L.Thigh.Inferior			L.Patella			L.Shank.Superior			L.Shank.Lateral			L.Shank.Inferior			R.Shank.Superior			R.Shank.Lateral			R.Shank.Inferior			R.Heel			R.Midfoot.Superior			R.Midfoot.Lateral			R.Toe			L.Heel			L.Midfoot.Lateral			L.Midfoot.Superior			L.Toe			L.Elbow			L.Wrist			R.Elbow			R.Wrist			
		X1	Y1	Z1	X2	Y2	Z2	X3	Y3	Z3	X4	Y4	Z4	X5	Y5	Z5	X6	Y6	Z6	X7	Y7	Z7	X8	Y8	Z8	X9	Y9	Z9	X10	Y10	Z10	X11	Y11	Z11	X12	Y12	Z12	X13	Y13	Z13	X14	Y14	Z14	X15	Y15	Z15	X16	Y16	Z16	X17	Y17	Z17	X18	Y18	Z18	X19	Y19	Z19	X20	Y20	Z20	X21	Y21	Z21	X22	Y22	Z22	X23	Y23	Z23	X24	Y24	Z24	X25	Y25	Z25	X26	Y26	Z26	X27	Y27	Z27	X28	Y28	Z28	X29	Y29	Z29	X30	Y30	Z30	X31	Y31	Z31	X32	Y32	Z32	X33	Y33	Z33	

106	43.070000000000	705.952149313489	994.993925072665	418.743354849241	926.728315014012	1415.190924200105	248.605282705507	995.180176369711	1350.880671617090	427.843050382012	885.156988750771	1430.055617734574	583.102651255000	879.052542070475	1483.693362803003	400.734088721277	917.980033007890	936.849165221359	567.692867028957	942.444078404733	945.838777527020	293.854124846168	996.479634513057	756.075028366730	552.033710162568	940.043453345082	640.264761929543	624.551487209387	1034.397077340053	592.193802817994	555.887019933736	1042.951215053799	481.498301406899	586.107902234570	993.550534073352	739.016946811777	339.117751889231	919.256093261050	614.619447604233	278.849304437831	999.945773318177	544.945154885501	356.679570604168	1001.760995374977	470.880745138268	368.314159080089	960.581488688764	397.378956665385	360.253287048650	860.219607776332	296.532991666371	301.029027493966	879.615042843226	181.944950097430	378.632678868686	964.493155623221	410.234874148528	591.266704561426	837.920800610371	375.756250261840	644.326743551303	826.490787255105	263.541416684160	601.171695045875	625.978442307751	200.086619482134	560.986957149632	791.701386327496	147.017326510882	620.553858368913	679.516010107612	146.470710192679	642.878259157291	855.368614714409	37.686640192379	658.290004082603	726.829978103967	39.675873646643	410.219057516387	805.909825167347	36.141589368568	334.698982668734	888.542655652737	94.554858443750	368.166048202762	1017.777542501118	39.920082468316	346.110833703454	1009.153326308407	1080.805904037339	114.975642080268	1219.311412829058	924.486236831161	124.170905854202	767.325251967504	1098.130630242567	690.835010549978	772.254397723451	838.882063185282	717.374026777638	
107	43.088857142857	704.484754349023	995.289829403013	416.330886830283	928.829143797318	1415.421286837799	249.485295405029	994.280612165963	1351.059932732898	429.784772258377	881.764080467345	1430.436648957373	583.172235514801	878.744064975168	1483.859365869780	401.048606956904	914.824047677349	937.506444897396	568.086395611261	942.491939772236	945.828598148750	294.532111098173	995.550066015765	758.835108248648	552.047480379469	941.042921789375	642.293630687387	624.544831430551	1035.961716925308	595.602618271203	555.784792189407	1047.025303529324	485.811051636997	586.132221584639	991.615318006044	738.041760673166	339.643790141599	916.766701360891	614.193722863687	278.915895133090	996.269258842533	544.006276565206	357.367594204103	997.464730091094	470.152814847038	369.169550618268	956.042535892842	396.804115155182	360.797496862503	855.669105713016	296.245052499833	301.123348001131	874.276343324008	181.641965108907	378.832492218986	971.192074875622	412.477371873779	591.615440103716	846.352831432657	373.263349487567	644.847974241783	839.487666310363	260.743114326957	601.963947898189	642.076081492546	187.617400081203	562.229719234722	809.987024764181	144.086047281113	621.775836018094	698.341088409112	137.731530508440	644.381485950229	879.052418728070	38.972327722970	660.027047514819	721.072757374390	39.617262344369	410.139426798641	800.204023363728	36.083439287858	334.628061653486	882.813632039679	94.483898039782	368.198372953894	1012.078922925313	39.902977136694	346.124758703931	1016.144961675348	1083.007062262657	115.317632414148	1232.328086968317	935.189676107599	126.840773973788	750.566211492395	1103.524964414249	687.155752446620	743.400034398762	844.245907659387	713.245278667855	
108	43.107714285714	703.055462718277	996.210119901717	414.192005697121	931.046876578087	1416.057313446623	250.639621612912	993.452037830558	1351.708435424384	431.979945662698	878.502330264003	1431.457681485689	583.392811679808	878.499469969569	1484.482362122089	401.541558977631	911.548303215823	938.599820566552	568.864206202647	942.485448198001	946.256123677569	295.652299632251	993.872467909419	761.602009648068	552.372666515753	940.894601143777	644.468496630913	624.766213511423	1036.103420328990	598.902176940703	555.850969915756	1049.634543639385	490.383790891229	586.203112695186	989.137314293935	737.260526717480	340.418035034439	913.467168849089	614.197747945866	279.059045215216	991.599842199077	543.304411985100	358.056546514420	992.056048154035	469.755308231604	369.961879072344	950.610164977615	396.632415621019	361.244947604354	850.449367831719	296.134539227097	301.165751592933	868.619199776702	181.550092671406	378.978953039072	977.030829023314	414.881748958441	592.209679794910	854.719876177728	370.034235916810	646.006819253153	853.286816342709	257.359970855729	603.410185165958	660.104240684614	173.075275821359	564.675999589729	830.080164226686	140.476460480963	623.664203401202	719.474412249044	127.533837500997	646.932338740636	905.237535281777	40.652912905726	662.281767912266	715.313512487388	39.558727986194	410.068187725767	794.487933806463	36.027478455233	334.563539942620	877.077249906266	94.435412609977	368.203354157559	1006.370205973123	39.901040243427	346.143217878563	1022.877870756531	1085.621889037571	116.031207140800	1244.688995703655	946.549493380928	129.852666747041	735.172095560150	1109.719360929065	683.481093483478	717.387171265175	850.809887727036	708.809263667347	
109	43.126571428571	701.677067405442	997.701826811721	412.370806176671	933.355039514780	1417.059676173685	252.050767450287	992.707223175958	1352.769772646055	434.390482140176	875.438190747855	1433.054634835077	583.769884578284	878.334706176804	1485.516822787873	402.210759486601	908.197244362802	940.080967887354	570.004417955167	942.388363699823	947.075295895034	297.187419821872	991.479058697948	764.274638494096	553.003057224994	939.604125523481	646.694224490813	625.226449964871	1034.842554675667	601.969587734043	556.103604426320	1050.757416001734	495.087876392917	586.328830630774	986.129252294020	736.666333449358	341.428152956807	909.397850513884	614.612911614683	279.267259537856	986.001735178359	542.834472891921	358.723538447822	985.613846914250	469.670953545294	370.656975421587	944.355693935710	396.844777078732	361.573134348348	844.597178666283	296.199906654477	301.149103055709	862.666979486094	181.660359608434	379.066842722124	981.940022146797	417.413715314783	593.023813299619	862.971624524490	366.237483597853	647.730882933859	867.710132241307	253.658257835324	605.412411083482	679.976516764593	157.143061570018	568.104853209197	851.643892269515	136.530316150476	626.068666721600	742.648432630232	116.454964813408	650.317542693138	933.316906170569	42.921861341055	664.918838370906	709.556027842010	39.504546780031	410.006505430207	788.762112356249	35.976053086265	334.507270252391	871.335555610612	94.409314067715	368.182010822641	1000.651826436160	39.912431030227	346.164446102489	1029.358004561676	1088.612817882530	117.090966691951	1256.374428545563	958.487270881737	133.162392797972	721.260220560725	1116.493254656843	679.898527243219	694.361065749042	858.178796284681	704.170660797697	
